<?xml version="1.0" encoding="UTF-8" standalone="no"?>
<svg width="51px" height="46px" viewBox="0 0 51 46" version="1.1" xmlns="http://www.w3.org/2000/svg" xmlns:xlink="http://www.w3.org/1999/xlink" xmlns:sketch="http://www.bohemiancoding.com/sketch/ns">
    <!-- Generator: Sketch 3.2.2 (9983) - http://www.bohemiancoding.com/sketch -->
    <title>logo</title>
    <desc>Created with Sketch.</desc>
    <defs></defs>
    <g id="Page-1" stroke="none" stroke-width="1" fill="none" fill-rule="evenodd" sketch:type="MSPage">
        <g id="Desktop-HD" sketch:type="MSArtboardGroup" transform="translate(-39.000000, -39.000000)" stroke="#000000" stroke-width="0.4" fill="#333333">
            <path d="M47.5362149,47.1775783 C48.2133679,46.4513006 48.9001766,45.7367844 49.5843378,45.0443985 C48.9039144,43.8824779 48.0663503,42.1597155 48.2804914,41.4136288 L48.2650732,41.4034148 C48.2867209,41.3271192 48.2851635,41.2437049 48.2521469,41.1647784 C48.1742774,40.9779859 47.9587347,40.8894645 47.7707578,40.9668434 C47.6729537,41.0072351 47.6028712,41.0849235 47.5681414,41.1762305 C46.7894467,42.2931166 45.6553557,43.2311029 44.1197697,44.1743509 C43.9319485,44.2517297 43.8427101,44.4659144 43.9207353,44.6527069 C43.9715062,44.7741917 44.080835,44.8531181 44.2026228,44.8727723 C44.2219345,44.8758674 44.2414018,44.8783436 44.2611807,44.8783436 C45.1924996,44.9535558 46.3410743,45.7115589 47.5362149,47.1775783 Z M84.8802337,44.1743509 C83.3444919,43.2311029 82.2104009,42.2931166 81.431862,41.1762305 C81.3971322,41.0849235 81.3270496,41.0072351 81.2290898,40.9668434 C81.0412687,40.8894645 80.825726,40.9779859 80.7477008,41.1647784 C80.7148399,41.2437049 80.7132825,41.3271192 80.7349302,41.4034148 L80.719512,41.4136288 C81.0096537,42.4243511 79.3694111,45.2287149 78.8048574,46.000801 C78.2403037,46.7727322 73.0939103,54.5104611 72.2456003,64.9867818 C70.9996887,62.0850754 68.0182223,57.6292925 64.4999238,55.7253089 C60.981781,57.6292925 58.0003147,62.0850754 56.7544031,64.9867818 C56.2544811,58.8124149 54.2616456,53.5901173 52.5936815,50.1835914 C51.8948808,50.9465467 51.2192853,51.7342632 50.6000672,52.521825 C52.9724386,58.1006844 54.9199541,66.8079701 54.93911,78.9022823 C54.9314788,80.4541922 53.9688563,81.2005885 53.6950673,81.4533077 C53.6157962,81.5204726 53.5644023,81.6190532 53.5644023,81.7307882 C53.5644023,81.9329018 53.7294856,82.0967901 53.9328806,82.0967901 C55.780879,82.3939249 57.2931041,83.1424877 58.4664413,83.9312876 C58.4722037,83.9353113 58.4781218,83.9390255 58.4840398,83.9428944 C58.5408846,83.9784887 58.6078523,84 58.6799594,84 C58.8833545,84 59.048282,83.8361116 59.048282,83.6339981 C59.048282,83.5697737 59.0302163,83.5105015 59.0010931,83.4580386 C57.9375519,81.4941638 58.0118394,79.0810274 58.0118394,79.0810274 C58.0118394,68.9416141 59.3335958,62.9060649 64.4999238,59.5332762 C69.6664076,62.9060649 70.9880083,68.9416141 70.9880083,79.0810274 C70.9880083,79.0810274 71.0624515,81.4941638 69.9987545,83.4580386 C69.9696313,83.5105015 69.9515656,83.5697737 69.9515656,83.6339981 C69.9515656,83.8361116 70.1166489,84 70.3200439,84 C70.3921511,84 70.4589631,83.9784887 70.5158078,83.9428944 C70.5218816,83.9390255 70.5277997,83.9353113 70.533562,83.9312876 C71.7067435,83.1424877 73.2191244,82.3939249 75.0671227,82.0967901 C75.2705178,82.0967901 75.4354453,81.9329018 75.4354453,81.7307882 C75.4354453,81.6190532 75.3842072,81.5204726 75.3049361,81.4533077 C75.031147,81.2005885 74.0683689,80.4541922 74.0607377,78.9022823 C74.0971806,55.9325294 81.0883018,45.1733117 84.738667,44.8783436 C84.7584458,44.8783436 84.7779132,44.8758674 84.7972248,44.8727723 L84.7973806,44.8727723 C84.9191684,44.8531181 85.0284972,44.7741917 85.0792681,44.6527069 C85.1572933,44.4659144 85.0680548,44.2517297 84.8802337,44.1743509 Z M69.6282516,74.5178426 C68.2463799,74.5291399 66.7699747,74.5460085 65.2102492,74.550187 C65.2076016,74.1648404 65.201372,72.3495329 65.201372,63.8087664 C65.201372,63.1027619 65.2267575,62.4003168 65.2731677,61.7037525 C65.0272559,61.4757945 64.7705981,61.2574314 64.4999238,61.0508299 C64.2294053,61.2574314 63.9727475,61.4757945 63.72668,61.7037525 C63.7730902,62.4003168 63.7984756,63.1027619 63.7984756,63.8087664 C63.7984756,72.3421045 63.7922461,74.1615905 63.7897542,74.5491037 C62.2247336,74.5433776 60.7492628,74.5269733 59.3717518,74.5164498 C59.3432516,75.0243645 59.320358,75.5519334 59.3027595,76.0997756 C61.679803,76.0918829 64.0186905,76.0830617 64.6741957,76.0804308 C65.2893645,76.082907 67.4539801,76.0915734 69.6970882,76.0993113 C69.6794897,75.5522429 69.6567518,75.0251383 69.6282516,74.5178426 Z M81.576232,49.1304654 C80.9716534,50.0489522 80.3856077,51.1319464 79.8358492,52.3467941 C81.7740204,54.9295449 83.1334657,57.5751273 82.7615611,59.5332762 C82.3385741,61.7610129 78.3961984,72.8407337 77.7023814,74.782633 C77.0107448,74.686838 76.2426403,74.6219945 75.40165,74.5799004 C75.3793793,75.1036004 75.3611579,75.6187887 75.3472971,76.1229892 C77.3761083,76.2288434 77.588069,77.1284498 77.8434809,77.7052317 C77.944867,77.934273 77.95499,77.9732719 77.9554572,77.9749743 C77.9989084,78.0789714 78.0439169,78.1837424 78.0907944,78.2882038 C78.3595998,79.0168029 79.0616709,79.537872 79.8881775,79.537872 C80.9319399,79.537872 81.7791598,78.7077519 81.8018977,77.6759825 L81.8018977,77.6761372 C81.8020534,77.6735063 81.8020534,77.6707207 81.8023649,77.6680898 C81.8025206,77.6566377 81.804078,77.6454952 81.804078,77.6338884 C81.804078,77.6334241 81.8039223,77.6329598 81.8039223,77.6323408 C81.8208978,77.3116829 81.7937993,76.9625496 81.6206176,76.6408084 C81.3049347,76.0542768 80.7322826,75.6273004 79.9345877,75.3153089 C80.342468,74.1903754 81.5807484,70.6032473 83.5802807,67.3166586 C86.7220024,62.1528593 88.0303653,64.4472966 88.9014132,61.6164692 C89.6606406,59.1490129 85.92166,53.9429647 81.576232,49.1304654 Z M72.9808438,40.7495636 C71.5520947,39.5587033 69.4410533,39.7878994 68.5759235,41.4294141 C67.1981011,44.0438902 65.3865456,47.8400959 64.5067763,51.2017421 L64.493227,51.2373364 L64.493227,51.2017421 C63.6134577,47.8400959 61.8017466,44.0438902 60.4240799,41.4294141 C59.55895,39.7878994 57.4479086,39.5587033 56.0191596,40.7495636 C54.6601815,41.8823898 52.9529712,43.4432757 51.1636865,45.2171081 C51.1639979,45.2175724 51.1644652,45.2180367 51.1647766,45.2185009 C49.9274307,46.4449555 48.6528632,47.7712287 47.4243944,49.1317035 C47.4242386,49.1312392 47.4239272,49.1307749 47.4236157,49.1304654 C43.0781876,53.9429647 39.3393628,59.1490129 40.0985901,61.6164692 C40.9694823,64.4472966 42.2778452,62.1528593 45.4195669,67.3166586 C47.419878,70.6041758 48.658314,74.192542 49.0657271,75.3163922 C48.2658519,75.6282289 47.6946015,76.0550506 47.3793858,76.6408084 C47.2062041,76.9625496 47.1791055,77.3116829 47.1960811,77.6323408 C47.1960811,77.6329598 47.1959254,77.6334241 47.1959254,77.6338884 C47.1959254,77.6454952 47.1974827,77.6566377 47.1976385,77.6680898 C47.1977942,77.6707207 47.19795,77.6735063 47.1981057,77.6761372 L47.1981057,77.6759825 C47.2208436,78.7077519 48.0680634,79.537872 49.1118259,79.537872 C49.9383324,79.537872 50.6404036,79.0168029 50.909209,78.2882038 C50.9560864,78.1837424 51.001095,78.0789714 51.0443904,77.9749743 L51.0445462,77.9748195 C51.0450134,77.9729624 51.0554479,77.9334992 51.1565225,77.7052317 C51.4117786,77.1284498 51.6237393,76.2289982 53.6523948,76.1229892 C53.6382226,75.6013011 53.6210913,75.0867318 53.599755,74.5822218 C52.7568959,74.6247802 51.9889471,74.6896236 51.2984006,74.7851091 C50.6072312,72.8504834 46.661585,61.7619414 46.2382866,59.5332762 C45.8990872,57.7473726 47.000473,55.3897942 48.6671912,53.0294302 L48.6673469,53.029585 C49.9060945,51.2750972 51.4572544,49.5199905 52.962627,47.9962464 C53.0925133,47.8647024 53.2222438,47.7347059 53.3513514,47.6065666 C53.4013436,47.5571989 53.4508686,47.5087597 53.5005493,47.4598563 C54.621714,46.3572079 55.6930422,45.4001864 56.5601967,44.6923248 C57.4083509,43.9997843 58.682607,44.2798956 59.1530944,45.2653925 C60.1876682,47.4324642 61.7246558,51.0698885 62.7436557,55.3631759 C63.1245932,55.0955999 63.5114487,54.8504637 63.9040666,54.6379815 L64.4999238,54.3156212 L65.095781,54.6379815 C65.4883989,54.8504637 65.8752544,55.0955999 66.2563476,55.3631759 C67.2753476,51.0698885 68.8123352,47.4324642 69.8467533,45.2653925 C70.3172406,44.2798956 71.5914967,43.9997843 72.4398067,44.6923248 C73.4612985,45.5261592 74.7651449,46.7034008 76.1012293,48.0603161 C77.073819,46.2703888 77.7863247,45.2875229 77.796915,45.2729756 C77.8096856,45.255488 77.8232349,45.2352148 77.8361612,45.2171081 C76.0470322,43.4432757 74.3398219,41.8823898 72.9808438,40.7495636 Z" id="logo" sketch:type="MSShapeGroup"></path>
        </g>
    </g>
</svg>