<?xml version="1.0" encoding="UTF-8" standalone="no"?>
<svg width="24px" height="24px" viewBox="0 0 24 24" version="1.1" xmlns="http://www.w3.org/2000/svg" xmlns:xlink="http://www.w3.org/1999/xlink" xmlns:sketch="http://www.bohemiancoding.com/sketch/ns">
    <!-- Generator: Sketch 3.2.2 (9983) - http://www.bohemiancoding.com/sketch -->
    <title>menu</title>
    <desc>Created with Sketch.</desc>
    <defs></defs>
    <g id="Page-1" stroke="none" stroke-width="1" fill="none" fill-rule="evenodd" sketch:type="MSPage">
        <g id="Desktop-HD" sketch:type="MSArtboardGroup" transform="translate(-1376.000000, -47.000000)" fill="#343433">
            <path d="M1389.78723,71 L1389.78724,61.15589 L1389.78723,60.787234 L1390.20895,60.787234 L1400,60.787234 L1400,71 L1389.78723,71 Z M1389.78723,57.212766 L1389.78724,47.3686559 L1389.78723,47 L1390.20895,47 L1400,47 L1400,57.212766 L1389.78723,57.212766 Z M1376,71 L1376,61.15589 L1376,60.787234 L1376.42171,60.787234 L1386.21277,60.787234 L1386.21277,71 L1376,71 Z M1376,57.212766 L1376,47.3686559 L1376,47 L1376.42171,47 L1386.21277,47 L1386.21277,57.212766 L1376,57.212766 Z" id="menu" sketch:type="MSShapeGroup"></path>
        </g>
    </g>
</svg>